<svg xmlns="http://www.w3.org/2000/svg" xmlns:xlink="http://www.w3.org/1999/xlink" width="500" zoomAndPan="magnify" viewBox="0 0 375 374.999991" height="500" preserveAspectRatio="xMidYMid meet" version="1.0"><defs><g/><clipPath id="5c9f466803"><path d="M 44.195312 182.796875 L 337.5 182.796875 L 337.5 212.753906 L 44.195312 212.753906 Z M 44.195312 182.796875 " clip-rule="nonzero"/></clipPath></defs><g fill="#231f20" fill-opacity="1"><g transform="translate(39.586663, 236.199066)"><g><path d="M 46.429688 -43.101562 L 46.429688 -44.035156 C 74.632812 -47.492188 83.679688 -58.667969 83.679688 -69.84375 C 83.679688 -85.542969 66.917969 -89.796875 46.695312 -89.796875 L 4.390625 -89.796875 L 4.390625 -89 L 11.574219 -82.082031 L 11.441406 -8.25 L 4.523438 -0.796875 L 4.523438 0 L 44.300781 0 L 44.300781 -0.796875 L 37.382812 -8.25 L 37.382812 -43.902344 L 40.441406 -43.902344 L 57.738281 -7.714844 L 51.085938 -0.796875 L 51.085938 0 L 88.203125 0 L 88.203125 -1.199219 L 65.71875 -43.902344 Z M 37.382812 -87.402344 L 42.703125 -87.402344 C 54.011719 -87.402344 56.40625 -78.625 56.40625 -68.378906 C 56.40625 -58.535156 54.945312 -46.296875 41.375 -46.296875 L 37.382812 -46.296875 Z M 37.382812 -87.402344 "/></g></g></g><g fill="#231f20" fill-opacity="1"><g transform="translate(125.657786, 236.199066)"><g><path d="M 11.042969 -8.25 L 4.257812 -0.796875 L 4.257812 0 L 43.902344 0 L 43.902344 -0.796875 L 37.117188 -8.25 L 37.117188 -81.550781 L 43.902344 -89 L 43.902344 -89.796875 L 4.257812 -89.796875 L 4.257812 -89 L 11.042969 -81.550781 Z M 11.042969 -8.25 "/></g></g></g><g fill="#231f20" fill-opacity="1"><g transform="translate(169.824046, 236.199066)"><g><path d="M 37.515625 -89.796875 L 4.257812 -89.796875 L 4.257812 -89 L 11.441406 -82.082031 L 11.441406 -7.714844 L 4.257812 -0.796875 L 4.257812 0 L 37.78125 0 C 75.828125 0 86.738281 -25.808594 86.738281 -47.09375 C 86.738281 -75.695312 70.109375 -89.796875 37.515625 -89.796875 Z M 37.382812 -2.660156 L 37.382812 -87.402344 L 38.046875 -87.402344 C 54.945312 -87.402344 59.332031 -74.765625 59.332031 -44.964844 C 59.332031 -13.570312 54.675781 -2.660156 39.910156 -2.660156 Z M 37.382812 -2.660156 "/></g></g></g><g fill="#231f20" fill-opacity="1"><g transform="translate(255.89518, 236.199066)"><g><path d="M 77.558594 -37.78125 C 74.632812 -33.390625 72.238281 -29.535156 70.109375 -26.207031 C 58.136719 -6.917969 55.078125 -2.394531 39.511719 -2.394531 L 37.382812 -2.394531 L 37.382812 -44.167969 L 38.714844 -44.167969 C 45.898438 -44.167969 51.21875 -40.976562 59.601562 -25.808594 L 60.398438 -25.808594 L 60.398438 -64.789062 L 59.601562 -64.789062 C 51.085938 -48.558594 45.898438 -46.429688 38.714844 -46.429688 L 37.382812 -46.429688 L 37.382812 -87.402344 L 38.714844 -87.402344 C 54.277344 -87.402344 57.339844 -82.878906 69.3125 -63.589844 L 76.761719 -52.015625 L 77.558594 -52.015625 L 77.558594 -89.796875 L 4.257812 -89.796875 L 4.257812 -89 L 11.441406 -82.082031 L 11.441406 -7.714844 L 4.257812 -0.796875 L 4.257812 0 L 78.359375 0 L 78.359375 -37.78125 Z M 77.558594 -37.78125 "/></g></g></g><g clip-path="url(#5c9f466803)"><path fill="#fbfaf9" d="M 44.195312 182.796875 L 337.5 182.796875 L 337.5 212.753906 L 44.195312 212.753906 Z M 44.195312 182.796875 " fill-opacity="1" fill-rule="nonzero"/></g><g fill="#231f20" fill-opacity="1"><g transform="translate(78.841536, 200.941436)"><g><path d="M 21.96875 0 L 17.390625 0 L 17.390625 -6.953125 L 13.296875 0 L 9.875 0 L 5.796875 -6.953125 L 5.796875 0 L 1.21875 0 L 1.21875 -10.921875 L 6.65625 -10.921875 L 11.59375 -3.125 L 16.515625 -10.921875 L 21.96875 -10.921875 Z M 21.96875 0 "/></g></g></g><g fill="#231f20" fill-opacity="1"><g transform="translate(114.488713, 200.941436)"><g><path d="M 14.359375 0 L 1.21875 0 L 1.21875 -10.921875 L 13.765625 -10.921875 L 13.765625 -8.21875 L 5.796875 -8.21875 L 5.796875 -6.5 L 12.53125 -6.5 L 12.53125 -4.40625 L 5.796875 -4.40625 L 5.796875 -2.703125 L 14.359375 -2.703125 Z M 14.359375 0 "/></g></g></g><g fill="#231f20" fill-opacity="1"><g transform="translate(141.922923, 200.941436)"><g/></g></g><g fill="#231f20" fill-opacity="1"><g transform="translate(158.254419, 200.941436)"><g><path d="M 5.796875 0 L 1.21875 0 L 1.21875 -10.921875 L 5.796875 -10.921875 Z M 5.796875 0 "/></g></g></g><g fill="#231f20" fill-opacity="1"><g transform="translate(177.734219, 200.941436)"><g><path d="M 13.953125 0 L 1.21875 0 L 1.21875 -10.921875 L 5.796875 -10.921875 L 5.796875 -2.703125 L 13.953125 -2.703125 Z M 13.953125 0 "/></g></g></g><g fill="#231f20" fill-opacity="1"><g transform="translate(204.461207, 200.941436)"><g><path d="M 8.25 0.234375 C 5.550781 0.234375 3.566406 -0.320312 2.296875 -1.4375 C 1.171875 -2.414062 0.609375 -3.753906 0.609375 -5.453125 C 0.609375 -7.148438 1.171875 -8.488281 2.296875 -9.46875 C 3.566406 -10.582031 5.550781 -11.140625 8.25 -11.140625 C 10.945312 -11.140625 12.929688 -10.582031 14.203125 -9.46875 C 15.328125 -8.488281 15.890625 -7.148438 15.890625 -5.453125 C 15.890625 -3.753906 15.328125 -2.414062 14.203125 -1.4375 C 12.929688 -0.320312 10.945312 0.234375 8.25 0.234375 Z M 8.25 -2.6875 C 9.351562 -2.6875 10.164062 -3.003906 10.6875 -3.640625 C 11.101562 -4.148438 11.3125 -4.753906 11.3125 -5.453125 C 11.3125 -6.148438 11.101562 -6.75 10.6875 -7.25 C 10.164062 -7.894531 9.351562 -8.21875 8.25 -8.21875 C 7.144531 -8.21875 6.332031 -7.894531 5.8125 -7.25 C 5.394531 -6.75 5.1875 -6.148438 5.1875 -5.453125 C 5.1875 -4.753906 5.394531 -4.148438 5.8125 -3.640625 C 6.332031 -3.003906 7.144531 -2.6875 8.25 -2.6875 Z M 8.25 -2.6875 "/></g></g></g><g fill="#231f20" fill-opacity="1"><g transform="translate(233.431546, 200.941436)"><g><path d="M 5.796875 0 L 1.21875 0 L 1.21875 -10.921875 L 5.796875 -10.921875 Z M 5.796875 0 "/></g></g></g><g fill="#231f20" fill-opacity="1"><g transform="translate(252.911345, 200.941436)"><g><path d="M 13.953125 0 L 1.21875 0 L 1.21875 -10.921875 L 5.796875 -10.921875 L 5.796875 -2.703125 L 13.953125 -2.703125 Z M 13.953125 0 "/></g></g></g><g fill="#231f20" fill-opacity="1"><g transform="translate(279.638322, 200.941436)"><g><path d="M 8.25 0.234375 C 5.550781 0.234375 3.566406 -0.320312 2.296875 -1.4375 C 1.171875 -2.414062 0.609375 -3.753906 0.609375 -5.453125 C 0.609375 -7.148438 1.171875 -8.488281 2.296875 -9.46875 C 3.566406 -10.582031 5.550781 -11.140625 8.25 -11.140625 C 10.945312 -11.140625 12.929688 -10.582031 14.203125 -9.46875 C 15.328125 -8.488281 15.890625 -7.148438 15.890625 -5.453125 C 15.890625 -3.753906 15.328125 -2.414062 14.203125 -1.4375 C 12.929688 -0.320312 10.945312 0.234375 8.25 0.234375 Z M 8.25 -2.6875 C 9.351562 -2.6875 10.164062 -3.003906 10.6875 -3.640625 C 11.101562 -4.148438 11.3125 -4.753906 11.3125 -5.453125 C 11.3125 -6.148438 11.101562 -6.75 10.6875 -7.25 C 10.164062 -7.894531 9.351562 -8.21875 8.25 -8.21875 C 7.144531 -8.21875 6.332031 -7.894531 5.8125 -7.25 C 5.394531 -6.75 5.1875 -6.148438 5.1875 -5.453125 C 5.1875 -4.753906 5.394531 -4.148438 5.8125 -3.640625 C 6.332031 -3.003906 7.144531 -2.6875 8.25 -2.6875 Z M 8.25 -2.6875 "/></g></g></g></svg>